<svg width="204" height="207" viewBox="0 0 204 207" fill="none" xmlns="http://www.w3.org/2000/svg">
<path d="M61.4388 8.67267C61.8631 8.37349 62.3976 7.77846 62.6395 7.38731L63.0443 6.62366L71.8774 9.91378L71.7863 10.4814C71.7395 10.8009 71.6508 11.2973 71.604 11.6167C71.5572 11.9362 71.6563 12.5747 71.8527 13.081C72.0359 13.5583 72.4888 14.2805 72.8829 14.6438C73.2691 15.0283 74.0224 15.5255 74.5929 15.738C75.1423 15.9426 76.0005 16.0938 76.5151 16.0689C77.0007 16.0573 77.7262 15.9184 78.0742 15.7593C78.4434 15.6081 78.9679 15.2981 79.226 15.0573C79.4841 14.8166 79.8736 14.2879 80.5414 13.1409L89.3112 16.4075L89.1496 17.358C89.0452 17.8966 89.0656 18.7464 89.1908 19.2502C89.2948 19.7462 89.6897 20.4949 90.068 20.9005C90.5495 21.4167 91.1574 21.7875 92.2351 22.189C93.503 22.6612 93.8937 22.7105 94.8223 22.4788C95.4475 22.3508 96.2463 21.9505 96.6598 21.551C97.0654 21.1727 97.4996 20.5885 97.8695 19.5953L102.307 21.2482C105.667 22.4997 106.742 22.9724 106.735 23.1862C106.743 23.3577 106.647 23.8752 106.553 24.3215C106.451 24.7889 106.524 25.562 106.72 26.0683C106.903 26.5457 107.356 27.2678 107.75 27.6312C108.137 28.0157 108.932 28.5286 109.503 28.7411C110.094 28.9615 111.011 29.0861 111.554 29.048C112.098 29.0098 112.897 28.8022 113.34 28.5821C113.812 28.3488 114.439 27.7642 115.515 26.1676L119.91 27.8048C123.27 29.0563 124.261 29.4975 124.19 29.6877C124.135 29.8357 124.059 30.361 124.008 30.823C123.969 31.314 124.063 32.0951 124.26 32.6014C124.443 33.0787 124.896 33.8008 125.29 34.1642C125.676 34.5487 126.472 35.0616 127.042 35.2741C127.634 35.4945 128.542 35.6403 129.086 35.6021C129.629 35.564 130.452 35.2929 130.919 35.0095C131.364 34.7182 132.007 34.0913 132.948 32.6613L141.824 35.9672L141.611 36.5377C141.485 36.8759 141.439 37.5806 141.456 38.1164C141.495 38.66 141.739 39.4249 141.975 39.8255C142.219 40.205 142.705 40.7714 143.06 41.0477C143.414 41.3241 144.257 41.7102 144.928 41.9119C145.775 42.1555 146.459 42.1936 147.229 41.9992C147.912 41.8446 148.603 41.4762 149.09 41.008C149.504 40.6085 149.938 40.0243 150.277 39.1156L159.258 42.4609L159.03 43.2663C158.907 43.7259 158.834 44.3726 158.893 44.7315C158.931 45.0824 159.125 45.66 159.305 46.0159C159.464 46.3639 159.922 46.9436 160.303 47.2779C160.655 47.6255 161.403 48.0725 161.973 48.2851C162.523 48.4897 163.418 48.6065 163.961 48.5683C164.497 48.5513 165.312 48.3014 165.784 48.0681C166.242 47.8058 166.825 47.2767 167.117 46.8801C167.38 46.4968 167.666 46.0502 167.722 45.9022C167.792 45.7121 168.851 46.0343 176.691 48.9545L176.527 49.7836C176.425 50.251 176.342 50.7975 176.321 50.9823C176.3 51.1671 176.404 51.6631 176.54 52.0745C176.704 52.4727 177.165 53.1737 177.607 53.6029C178.049 54.0322 178.836 54.5662 179.407 54.7787C179.956 54.9834 180.814 55.1346 181.329 55.1097C181.815 55.098 182.461 54.9778 182.764 54.8742C183.046 54.7628 183.529 54.437 183.853 54.1486C184.156 53.8524 184.595 53.3183 185.21 52.248L189.735 53.8611C193.893 55.3616 194.223 55.5087 194.097 55.8468C194.018 56.0581 193.914 56.5968 193.87 57.0376C193.826 57.4785 193.997 58.3121 194.249 58.8632C194.48 59.4064 195.046 60.1467 195.511 60.5126C195.963 60.8494 196.45 61.2231 196.582 61.3205C196.749 61.4547 196.387 62.6194 193.341 70.7975L192.261 70.66C191.643 70.5742 190.807 70.6236 190.353 70.7434C189.921 70.871 189.177 71.3161 188.727 71.7499C188.226 72.1892 187.753 72.8791 187.54 73.4496C187.344 73.9779 187.145 74.7701 187.122 75.2189C187.078 75.6597 187.243 76.4432 187.482 76.9653C187.721 77.4874 188.232 78.183 188.613 78.5173C188.964 78.865 189.459 79.2175 189.691 79.3041C190.093 79.4537 190.059 79.6095 186.611 88.8652L185.668 88.6825C185.13 88.5782 184.401 88.5956 184.027 88.6967C183.644 88.819 182.948 89.1372 182.49 89.3996C181.783 89.8102 181.515 90.1434 180.974 91.3375C180.396 92.5661 180.333 92.9278 180.457 93.8882C180.535 94.5188 180.758 95.2758 180.975 95.5973C181.185 95.94 181.793 96.5035 183.263 97.5322L179.881 106.933L178.688 106.777C177.936 106.665 177.133 106.752 176.54 106.988C176.026 107.205 175.272 107.743 174.906 108.208C174.393 108.811 174.109 109.379 173.869 110.348C173.644 111.275 173.613 111.938 173.821 112.544C173.975 113.035 174.335 113.747 174.629 114.121C174.902 114.487 175.491 114.971 176.654 115.597L173.151 125.001L172.209 124.818C171.67 124.714 170.892 124.736 170.438 124.856C170.013 124.963 169.28 125.315 168.827 125.628C168.139 126.118 167.921 126.445 167.409 127.819C166.89 129.214 166.856 129.562 167.08 130.512C167.235 131.195 167.603 131.886 168.071 132.373C168.471 132.786 169.055 133.221 169.964 133.559L166.422 143.068L165.228 142.913C164.476 142.801 163.674 142.887 163.08 143.123C162.566 143.341 161.813 143.878 161.447 144.344C160.933 144.947 160.65 145.515 160.409 146.484C160.184 147.411 160.154 148.073 160.361 148.68C160.515 149.17 160.876 149.882 161.17 150.256C161.442 150.623 162.032 151.107 163.195 151.732L159.692 161.136L158.749 160.953C158.211 160.849 157.403 160.885 156.928 160.997C156.467 161.138 155.742 161.47 155.317 161.769C154.753 162.184 154.401 162.679 153.981 163.677C153.492 164.795 153.419 165.249 153.538 166.159C153.623 166.769 153.847 167.526 154.056 167.868C154.273 168.19 154.874 168.774 156.343 169.803L153.023 179.106L151.792 178.985C151.088 178.939 150.156 179.049 149.621 179.259C149.107 179.476 148.353 180.014 147.987 180.479C147.474 181.082 147.19 181.65 146.949 182.619C146.724 183.546 146.694 184.209 146.894 184.836C147.056 185.306 147.416 186.018 147.71 186.392C147.983 186.758 148.572 187.242 149.735 187.868L146.193 197.377L145.728 197.204C145.453 197.102 144.791 197.072 144.247 197.11C143.704 197.148 142.846 197.382 142.359 197.658C141.85 197.925 141.136 198.55 140.067 199.932L136.589 198.613C134.666 197.896 132.74 197.251 131.528 197.016L131.737 195.939C131.865 195.337 131.903 194.461 131.804 194.015C131.713 193.548 131.331 192.828 130.953 192.423C130.575 192.017 129.887 191.472 129.425 191.228C128.949 190.954 128.059 190.695 127.42 190.601C126.795 190.537 125.85 190.618 125.338 190.764C124.819 190.932 124.141 191.329 123.852 191.655C123.57 191.959 123.215 192.524 122.853 193.496L119.43 192.221C117.528 191.513 115.518 190.836 113.859 190.507L114.151 189.726C114.316 189.282 114.441 188.558 114.427 188.144C114.421 187.709 114.168 186.965 113.885 186.498C113.601 186.032 112.953 185.381 112.417 185.013C111.872 184.666 111.008 184.272 110.449 184.16C109.889 184.047 108.983 184.023 108.424 184.103C107.745 184.203 107.126 184.51 106.565 185.023C106.115 185.457 105.652 186.055 105.313 186.963L101.486 185.61C99.3862 184.852 97.4131 184.141 97.0961 184.023C96.5467 183.818 96.5147 183.71 96.7318 182.804C96.8652 182.252 96.9401 181.534 96.9024 181.183C96.8858 180.84 96.6285 180.239 96.3426 179.844C96.0645 179.427 95.5407 178.896 95.1865 178.619C94.8243 178.364 94.1874 178.006 93.7859 177.857C93.3844 177.707 92.6266 177.545 92.1145 177.499C91.5733 177.466 90.6606 177.655 89.9645 177.974C88.8702 178.456 88.7149 178.615 87.9853 180.509L84.562 179.234C82.6601 178.525 80.6501 177.849 78.9919 177.52L79.2674 176.781C79.4169 176.379 79.489 175.54 79.4322 174.917C79.3248 174.107 79.0807 173.535 78.5383 172.923C78.0647 172.386 77.3271 171.847 76.5399 171.505C75.4936 171.019 75.1029 170.97 73.9419 171.115C73.1899 171.196 72.3037 171.443 71.961 171.653C71.6395 171.87 71.1552 172.459 70.3403 173.937L66.5763 172.607C64.4975 171.857 62.5455 171.154 62.2285 171.036C61.7002 170.839 61.6683 170.731 61.8642 169.817C61.9976 169.265 62.0647 168.568 62.0112 168.259C61.9868 167.938 61.7294 167.336 61.4804 166.907C61.2023 166.49 60.4697 165.808 59.8698 165.416C58.9631 164.814 58.5616 164.664 57.6509 164.59C57.0253 164.525 56.1386 164.58 55.6637 164.692C55.1889 164.804 54.4825 165.215 54.0769 165.593C53.6713 165.971 53.2449 166.534 52.9065 167.443L49.0791 166.09C46.9792 165.331 45.0061 164.621 44.6891 164.502C44.1819 164.314 44.1368 164.176 44.2855 163.39C44.3741 162.893 44.4225 162.117 44.3662 161.687C44.3176 161.236 43.9807 160.461 43.6128 159.963C43.1706 159.341 42.5943 158.885 41.9205 158.562C41.3446 158.3 40.4467 158.061 39.9267 158.036C39.4067 158.011 38.5834 158.089 38.1218 158.23C37.6391 158.363 36.9775 158.718 36.6825 158.994C36.3875 159.269 36.0034 159.848 35.5784 160.989L32.155 159.714C30.2531 159.005 28.2431 158.329 26.5849 158L26.8211 157.366C26.947 157.028 27.0775 156.354 27.1002 155.906C27.1019 155.449 27.0107 154.789 26.8594 154.42C26.7214 154.08 26.2026 153.406 25.6975 152.953C25.0204 152.316 24.5236 152.034 23.6125 151.767C22.9549 151.594 21.9306 151.502 21.3502 151.574C20.7564 151.618 19.9758 151.904 19.6174 152.156C19.259 152.407 18.7378 153.031 17.9333 154.416L14.1693 153.086C12.0905 152.336 10.1385 151.633 9.82156 151.515C9.31439 151.326 9.26922 151.189 9.37856 150.508C9.46472 150.083 9.4974 149.349 9.44103 148.919C9.39252 148.468 9.05022 147.642 8.69013 147.123C8.31677 146.575 7.67409 145.975 6.51142 145.349L10.0141 135.945L11.3735 136.043C12.3054 136.125 12.9729 136.013 13.6847 135.652C14.2013 135.363 14.8626 134.816 15.1468 134.44C15.4178 134.036 15.7674 133.42 15.8934 133.082C16.0193 132.744 16.1601 131.978 16.1879 131.387C16.2023 130.767 16.0183 129.904 15.7162 129.358C15.4564 128.828 15.0196 128.257 14.7474 128.083C14.4752 127.909 14.0417 127.652 13.2806 127.176L16.8226 117.666L17.3509 117.863C17.6467 117.973 18.2434 118.051 18.6788 118.045C19.1011 118.01 19.8792 117.794 20.388 117.527C20.8756 117.251 21.558 116.711 21.8791 116.301C22.2739 115.823 22.5681 115.162 22.7354 114.455C22.8634 113.852 22.9247 112.913 22.8153 112.367C22.727 111.828 22.4456 111.098 22.1651 110.753C21.9057 110.416 21.3028 109.902 20.0104 109.108L23.4737 99.81L24.8331 99.9073C25.765 99.9897 26.4325 99.8774 27.1443 99.5169C27.661 99.228 28.3222 98.6802 28.6064 98.3048C28.8774 97.9004 29.2349 97.2635 29.3687 96.9043C29.5104 96.5239 29.6301 95.7503 29.6209 95.1935C29.6197 94.6155 29.3801 93.7081 29.0992 93.1703C28.8182 92.6325 28.3392 92.045 28.0036 91.8478C27.6891 91.6584 27.2557 91.4007 27.0891 91.2665C26.7613 91.0482 26.8897 90.6388 30.2822 81.531L30.8105 81.7278C31.1063 81.8379 31.703 81.9158 32.1385 81.9096C32.5607 81.8743 33.3678 81.6456 33.9056 81.3646C34.4301 81.0546 35.1282 80.4724 35.4361 80.0336C35.7518 79.5737 36.101 78.7653 36.2344 78.2134C36.3466 77.6536 36.3764 76.7984 36.2935 76.3103C36.2106 75.8222 35.9769 75.1576 35.7519 74.8573C35.5559 74.5436 34.9476 73.9802 33.47 72.9726L36.9333 63.6746L38.2927 63.7718C39.2246 63.8542 39.8921 63.7419 40.6039 63.3814C41.1206 63.0926 41.7818 62.5448 42.066 62.1694C42.337 61.7649 42.6945 61.1281 42.8283 60.7688C42.97 60.3885 43.0897 59.6149 43.0806 59.058C43.0793 58.48 42.8397 57.5726 42.5588 57.0348C42.2778 56.497 41.7988 55.9095 41.4632 55.7123C41.1487 55.523 40.7153 55.2653 40.5487 55.1311C40.2209 54.9127 40.3415 54.5245 43.7924 45.5828L44.8721 45.7203C45.5401 45.8006 46.3078 45.6775 46.967 45.3937C47.5392 45.1496 48.3297 44.5777 48.7167 44.1203C49.2222 43.5385 49.4769 42.9837 49.6758 42.1915C49.8038 41.5894 49.8306 40.6128 49.7291 40.0456C49.6221 39.4282 49.296 38.7533 48.8833 38.3108C48.5183 37.9342 47.9075 37.442 46.9296 36.8371L50.4322 27.4335L50.9183 27.6145C51.1719 27.7089 51.8344 27.7391 52.378 27.701C52.9137 27.684 53.7287 27.4341 54.2007 27.2008C54.6593 26.9385 55.2414 26.4093 55.5256 26.0339C55.7966 25.6295 56.1541 24.9926 56.2879 24.6334C56.4296 24.253 56.5493 23.4794 56.5402 22.9226C56.5389 22.3446 56.2993 21.4372 56.0184 20.8994C55.7374 20.3616 55.2584 19.7741 54.9228 19.5769C54.6083 19.3875 54.1749 19.1298 54.0083 18.9956C53.6805 18.7773 53.809 18.3679 55.3911 14.1204C56.7055 10.5914 57.194 9.47386 57.4289 9.48918C57.5714 9.49414 57.97 9.52229 58.2895 9.56909C58.6089 9.61589 59.274 9.57483 59.7778 9.44966C60.2816 9.3245 61.0357 8.97972 61.4388 8.67267Z" fill="#D8C39F"/>
<path d="M42.2818 21.289C42.6345 20.9081 43.0336 20.215 43.1889 19.782L43.4261 18.9509L52.7502 20.3326L52.7791 20.9068C52.7998 21.229 52.8163 21.733 52.8369 22.0552C52.8576 22.3774 53.0872 22.9814 53.3846 23.4358C53.663 23.8646 54.2562 24.4768 54.7172 24.7503C55.1749 25.0461 56.0151 25.3757 56.6174 25.465C57.1973 25.5509 58.0681 25.5204 58.5663 25.3891C59.0389 25.2767 59.7197 24.9901 60.027 24.762C60.3567 24.5373 60.8053 24.1251 61.0077 23.8359C61.2101 23.5468 61.4811 22.9487 61.8959 21.6879L71.1531 23.0597L71.1928 24.0231C71.2027 24.5716 71.3993 25.3986 71.6264 25.8654C71.8313 26.3289 72.3733 26.9791 72.8276 27.2972C73.4059 27.7021 74.0776 27.9384 75.2152 28.107C76.5536 28.3053 76.9461 28.2723 77.8061 27.8526C78.3911 27.5974 79.0892 27.0397 79.4106 26.563C79.7287 26.1086 80.0319 25.4469 80.1873 24.3985L84.8717 25.0926C88.4184 25.6182 89.5684 25.857 89.6056 26.0677C89.6494 26.2338 89.6626 26.7601 89.6634 27.2161C89.6609 27.6945 89.893 28.4355 90.1904 28.8899C90.4688 29.3187 91.062 29.931 91.523 30.2044C91.9807 30.5002 92.8655 30.8365 93.4678 30.9258C94.0924 31.0183 95.0144 30.9498 95.5382 30.7994C96.062 30.6491 96.8006 30.2798 97.1881 29.9725C97.6012 29.6462 98.0928 28.944 98.8133 27.1586L103.453 27.8462C107 28.3718 108.061 28.5973 108.031 28.7981C108.008 28.9543 108.043 29.4838 108.089 29.9465C108.153 30.4348 108.407 31.1792 108.705 31.6336C108.983 32.0624 109.576 32.6746 110.037 32.9481C110.495 33.2438 111.38 33.5801 111.982 33.6694C112.607 33.7619 113.526 33.7157 114.049 33.5654C114.573 33.415 115.322 32.9788 115.719 32.6046C116.094 32.227 116.592 31.4802 117.216 29.8857L126.585 31.274L126.496 31.8763C126.443 32.2332 126.544 32.9322 126.672 33.4527C126.823 33.9765 127.221 34.6738 127.535 35.0166C127.852 35.3372 128.446 35.79 128.85 35.9866C129.254 36.1833 130.159 36.3857 130.857 36.4436C131.737 36.5056 132.413 36.4007 133.126 36.0504C133.763 35.7571 134.362 35.2532 134.741 34.6939C135.062 34.2172 135.365 33.5554 135.508 32.5963L144.988 34.0011L144.932 34.8364C144.908 35.3114 144.971 35.9592 145.103 36.2979C145.213 36.6333 145.523 37.158 145.773 37.4686C146.001 37.7759 146.57 38.2477 147.012 38.4956C147.428 38.7625 148.253 39.0442 148.855 39.1335C149.435 39.2194 150.335 39.1476 150.858 38.9972C151.379 38.8692 152.124 38.4553 152.537 38.129C152.931 37.777 153.391 37.1384 153.594 36.6898C153.772 36.2602 153.959 35.7637 153.982 35.6076C154.012 35.4068 155.115 35.5018 163.391 36.7282L163.402 37.5734C163.4 38.0517 163.432 38.6036 163.45 38.7887C163.468 38.9737 163.673 39.4372 163.891 39.8115C164.135 40.1668 164.731 40.7567 165.253 41.0847C165.774 41.4127 166.656 41.7713 167.258 41.8605C167.838 41.9465 168.709 41.916 169.207 41.7846C169.679 41.6723 170.287 41.4203 170.562 41.2559C170.815 41.0882 171.219 40.6694 171.476 40.3199C171.71 39.9671 172.029 39.3533 172.408 38.1785L177.17 38.8157C181.548 39.4189 181.902 39.4941 181.849 39.851C181.816 40.0741 181.826 40.6227 181.875 41.063C181.923 41.5034 182.264 42.2833 182.625 42.7699C182.963 43.2533 183.671 43.8597 184.203 44.1208C184.715 44.3563 185.268 44.6207 185.418 44.6884C185.609 44.7851 185.497 45.9996 184.218 54.6322L183.133 54.7222C182.511 54.7668 181.703 54.989 181.284 55.2005C180.888 55.4153 180.253 56.0051 179.903 56.5231C179.504 57.0568 179.185 57.8301 179.096 58.4324C179.013 58.9901 178.983 59.8063 179.054 60.25C179.103 60.6903 179.428 61.4223 179.77 61.8833C180.112 62.3444 180.756 62.9186 181.198 63.1665C181.614 63.4333 182.171 63.6754 182.417 63.7118C182.84 63.7746 182.84 63.934 181.392 73.7043L180.432 73.7216C179.883 73.7315 179.174 73.9 178.829 74.0768C178.48 74.2759 177.866 74.7319 177.471 75.0839C176.866 75.6324 176.672 76.0141 176.392 77.2947C176.082 78.6165 176.096 78.9834 176.416 79.8971C176.624 80.4977 176.999 81.1917 177.279 81.4611C177.555 81.7527 178.267 82.1774 179.918 82.8781L178.565 92.7764L177.366 92.8722C176.607 92.9193 175.84 93.1704 175.309 93.5248C174.851 93.8445 174.225 94.5269 173.964 95.0581C173.588 95.7546 173.428 96.3692 173.394 97.3673C173.367 98.3207 173.475 98.975 173.804 99.5252C174.057 99.973 174.557 100.594 174.922 100.899C175.265 101.201 175.943 101.552 177.21 101.922L175.739 111.849L174.779 111.866C174.231 111.876 173.474 112.06 173.055 112.271C172.662 112.464 172.018 112.961 171.64 113.361C171.069 113.983 170.923 114.349 170.708 115.799C170.49 117.271 170.53 117.619 170.946 118.502C171.24 119.138 171.743 119.737 172.303 120.116C172.779 120.437 173.441 120.741 174.4 120.883L172.913 130.921L171.713 131.016C170.954 131.063 170.187 131.315 169.656 131.669C169.198 131.989 168.573 132.671 168.312 133.202C167.935 133.899 167.776 134.513 167.742 135.511C167.714 136.465 167.823 137.119 168.151 137.669C168.404 138.117 168.905 138.739 169.27 139.043C169.613 139.345 170.29 139.696 171.558 140.066L170.087 149.993L169.127 150.01C168.578 150.02 167.796 150.223 167.354 150.431C166.932 150.665 166.292 151.14 165.939 151.521C165.474 152.045 165.232 152.602 165.029 153.666C164.783 154.86 164.806 155.32 165.111 156.186C165.322 156.764 165.698 157.458 165.974 157.75C166.253 158.019 166.962 158.466 168.613 159.167L167.299 168.957L166.071 169.094C165.372 169.195 164.484 169.497 164.004 169.813C163.546 170.133 162.92 170.815 162.659 171.347C162.283 172.043 162.123 172.658 162.089 173.656C162.062 174.609 162.17 175.263 162.496 175.836C162.752 176.261 163.252 176.883 163.617 177.188C163.96 177.489 164.638 177.84 165.905 178.211L164.418 188.248L163.927 188.176C163.637 188.133 162.983 188.241 162.459 188.391C161.935 188.542 161.145 188.949 160.725 189.32C160.283 189.688 159.715 190.447 158.957 192.021L155.28 191.454C153.25 191.153 151.233 190.922 149.998 190.945L149.979 189.847C149.979 189.232 149.833 188.367 149.644 187.951C149.458 187.513 148.935 186.889 148.481 186.571C148.026 186.253 147.241 185.863 146.738 185.72C146.215 185.551 145.291 185.483 144.647 185.524C144.021 185.591 143.114 185.867 142.644 186.116C142.17 186.388 141.591 186.917 141.375 187.296C141.163 187.652 140.933 188.279 140.781 189.305L137.167 188.77C135.16 188.472 133.053 188.228 131.362 188.251L131.485 187.426C131.554 186.958 131.526 186.224 131.426 185.822C131.329 185.397 130.928 184.722 130.554 184.325C130.18 183.927 129.41 183.426 128.809 183.177C128.204 182.951 127.277 182.745 126.706 182.751C126.135 182.758 125.245 182.922 124.714 183.117C124.071 183.356 123.529 183.785 123.088 184.404C122.737 184.922 122.408 185.602 122.266 186.561L118.241 186.033C116.03 185.728 113.952 185.443 113.617 185.394C113.037 185.308 112.983 185.209 113.007 184.278C113.023 183.71 112.947 182.992 112.837 182.657C112.75 182.325 112.373 181.79 112.011 181.463C111.653 181.113 111.03 180.702 110.626 180.505C110.218 180.331 109.521 180.114 109.097 180.051C108.674 179.988 107.899 179.987 107.388 180.048C106.852 180.128 105.998 180.503 105.384 180.959C104.414 181.659 104.295 181.847 103.975 183.851L100.361 183.315C98.3537 183.018 96.247 182.774 94.5566 182.797L94.6723 182.016C94.7351 181.593 94.631 180.757 94.446 180.159C94.1726 179.389 93.8149 178.88 93.1572 178.395C92.5822 177.968 91.7486 177.594 90.9076 177.424C89.7832 177.166 89.3908 177.199 88.2853 177.582C87.5665 177.818 86.7511 178.244 86.4594 178.52C86.1901 178.799 85.8389 179.476 85.349 181.091L81.3908 180.573C79.2014 180.271 77.1459 179.989 76.8113 179.94C76.2537 179.857 76.2 179.758 76.2017 178.823C76.2174 178.256 76.1381 177.56 76.0216 177.269C75.9307 176.96 75.554 176.425 75.2211 176.057C74.8626 175.707 74.0042 175.192 73.3358 174.934C72.3238 174.533 71.8999 174.47 70.9936 174.587C70.3682 174.653 69.5123 174.891 69.0711 175.1C68.6299 175.308 68.0243 175.856 67.7062 176.311C67.3881 176.765 67.0882 177.405 66.9461 178.364L62.921 177.836C60.7093 177.531 58.6315 177.246 58.2969 177.196C57.7615 177.117 57.6888 176.992 57.6707 176.191C57.6542 175.687 57.5402 174.918 57.3956 174.509C57.2544 174.078 56.7637 173.39 56.3002 172.979C55.7384 172.463 55.08 172.137 54.3538 171.961C53.7358 171.824 52.808 171.778 52.2941 171.861C51.7802 171.945 50.9912 172.192 50.569 172.426C50.1246 172.657 49.5512 173.142 49.3198 173.472C49.0885 173.803 48.8332 174.449 48.6547 175.653L45.041 175.118C43.0334 174.82 40.9267 174.576 39.2363 174.599L39.3355 173.93C39.3884 173.573 39.376 172.888 39.305 172.444C39.2117 171.997 38.9853 171.371 38.7606 171.041C38.5549 170.737 37.9072 170.185 37.319 169.847C36.5242 169.365 35.9798 169.193 35.033 169.121C34.3539 169.089 33.3327 169.211 32.78 169.403C32.2083 169.569 31.5044 170.011 31.2061 170.332C30.9078 170.652 30.5278 171.371 30.0287 172.893L26.0705 172.375C23.8812 172.073 21.8257 171.791 21.4911 171.742C20.9557 171.662 20.883 171.538 20.8483 170.849C20.8442 170.415 20.7236 169.69 20.5791 169.281C20.4378 168.85 19.9314 168.114 19.4712 167.681C18.9921 167.223 18.2386 166.769 16.9713 166.399L18.4422 156.472L19.7922 156.285C20.7208 156.172 21.3504 155.923 21.9717 155.422C22.417 155.032 22.9499 154.359 23.1499 153.933C23.3308 153.481 23.5448 152.806 23.5977 152.449C23.6506 152.092 23.6292 151.314 23.5333 150.73C23.4185 150.12 23.0592 149.315 22.6502 148.844C22.2859 148.379 21.7398 147.911 21.4375 147.798C21.1351 147.684 20.6576 147.523 19.8141 147.215L21.3016 137.177L21.8592 137.26C22.1715 137.306 22.7713 137.258 23.196 137.162C23.6016 137.039 24.3179 136.667 24.7599 136.299C25.1797 135.928 25.7349 135.258 25.9637 134.791C26.2504 134.24 26.4008 133.533 26.4174 132.806C26.4174 132.191 26.282 131.259 26.0614 130.747C25.8631 130.239 25.436 129.583 25.0899 129.304C24.766 129.028 24.0696 128.651 22.6403 128.143L24.0947 118.328L25.4447 118.141C26.3733 118.027 27.0029 117.779 27.6242 117.278C28.0695 116.888 28.6024 116.215 28.8024 115.789C28.9833 115.337 29.2006 114.639 29.2568 114.26C29.3163 113.859 29.2726 113.077 29.1478 112.534C29.0264 111.969 28.6035 111.132 28.2168 110.664C27.8302 110.196 27.2395 109.721 26.8702 109.598C26.5232 109.478 26.0457 109.316 25.8548 109.22C25.4889 109.074 25.5294 108.647 26.9541 99.033L27.5117 99.1156C27.824 99.1619 28.4238 99.114 28.8485 99.0173C29.2541 98.8951 29.996 98.5035 30.4637 98.1169C30.9123 97.7046 31.4741 96.99 31.684 96.4968C31.8972 95.9813 32.0707 95.1179 32.0864 94.5503C32.0798 93.9794 31.9312 93.1367 31.7486 92.6766C31.566 92.2164 31.1992 91.6149 30.9167 91.3679C30.6597 91.1018 29.9476 90.6772 28.2928 89.9988L29.7472 80.1839L31.0972 79.9964C32.0258 79.8833 32.6554 79.6346 33.2767 79.134C33.722 78.744 34.2549 78.0707 34.4549 77.6444C34.6358 77.1925 34.8531 76.4952 34.9093 76.116C34.9688 75.7145 34.9251 74.933 34.8003 74.3902C34.6789 73.825 34.256 72.9873 33.8693 72.5197C33.4827 72.052 32.892 71.577 32.5227 71.4538C32.1757 71.334 31.6982 71.1721 31.5073 71.0754C31.1414 70.93 31.1786 70.5252 32.6949 61.0614L33.7797 60.9714C34.4497 60.9111 35.1751 60.6311 35.7609 60.2164C36.2698 59.8586 36.9242 59.1349 37.2076 58.607C37.5811 57.9329 37.7149 57.3372 37.7447 56.521C37.7447 55.9055 37.568 54.9446 37.3507 54.4109C37.1177 53.8293 36.6584 53.2369 36.1627 52.8899C35.7273 52.5974 35.0276 52.2429 33.9453 51.8546L35.4163 41.9282L35.9293 42.0042C36.197 42.0439 36.8513 41.9356 37.3751 41.7853C37.8956 41.6573 38.6409 41.2434 39.054 40.9171C39.4481 40.5651 39.9074 39.9265 40.1074 39.5002C40.2883 39.0483 40.5056 38.351 40.5618 37.9718C40.6213 37.5703 40.5776 36.7887 40.4529 36.2459C40.3314 35.6808 39.9085 34.8431 39.5218 34.3754C39.1352 33.9078 38.5445 33.4327 38.1752 33.3096C37.8282 33.1898 37.3507 33.0279 37.1599 32.9312C36.7939 32.7858 36.8344 32.3586 37.4988 27.875C38.0508 24.1498 38.2962 22.9552 38.5292 22.9213C38.6697 22.8965 39.0654 22.8412 39.3876 22.8206C39.7098 22.7999 40.3518 22.6215 40.8186 22.3943C41.2854 22.1671 41.9513 21.6731 42.2818 21.289Z" fill="#F7E4C4"/>
</svg>
