<svg width="20" height="21" viewBox="0 0 20 21" fill="none" xmlns="http://www.w3.org/2000/svg">
<g clip-path="url(#clip0_139_1998)">
<path d="M19.5108 5.04903L15.5913 1.12953C15.057 0.595228 14.1447 0.839689 13.9491 1.56956C13.8584 1.90829 13.9552 2.26972 14.2032 2.51769L15.4697 3.78254L10.1318 9.12041L7.56045 6.54742C6.92271 5.90988 5.88894 5.90988 5.2512 6.54742L0.678462 11.1202C0.371407 11.4259 0.199149 11.8415 0.199954 12.2748V18.8073C0.199954 19.7093 0.931103 20.4404 1.83308 20.4404H8.36557C8.79892 20.4416 9.21471 20.2693 9.52019 19.9619L14.0929 15.3892C14.7305 14.7514 14.7305 13.7177 14.0929 13.0799L11.52 10.5061L16.8578 5.1707L18.1243 6.438C18.6586 6.9723 19.5709 6.72784 19.7665 5.99797C19.8573 5.65924 19.7604 5.29781 19.5125 5.04985L19.5108 5.04903ZM12.4761 14.2345L8.23002 18.4806H2.1597V12.4103L6.40583 8.16421L8.74854 10.5061L5.71256 13.5413C5.17827 14.0756 5.42272 14.9879 6.15259 15.1835C6.49133 15.2742 6.85275 15.1774 7.10072 14.9294L10.1359 11.8934L12.4761 14.2345Z" fill="#FCF5ED"/>
</g>
<defs>
<clipPath id="clip0_139_1998">
<rect width="20" height="20" fill="white" transform="translate(0 0.641235)"/>
</clipPath>
</defs>
</svg>
