<svg width="335" height="202" viewBox="0 0 335 202" fill="none" xmlns="http://www.w3.org/2000/svg">
<path d="M5.45805 4.09512C5.88293 3.47415 6.30781 2.39561 6.43854 1.74195L6.60195 0.5H19.2829V1.41512C19.2829 1.90537 19.5444 2.88585 19.8712 3.60488C20.198 4.3239 20.8844 5.20634 21.44 5.59854C21.9629 5.99073 22.9107 6.44829 23.5317 6.67707C24.1527 6.87317 25.2312 7.03659 25.8849 7.03659C26.5712 7.03659 27.6824 6.80781 28.3361 6.51366C29.0224 6.2522 30.0029 5.63122 30.4932 5.14098C31.0161 4.65073 31.6371 3.73561 31.8985 3.11463C32.16 2.49366 32.3561 1.6439 32.3561 0.5H45.1024V1.80732C45.1024 2.78781 45.3639 3.47415 46.181 4.52C46.8673 5.40244 47.7824 6.08878 48.7302 6.44829C49.5146 6.74244 50.8219 7.0039 51.639 7.0039C52.4561 7.0039 53.698 6.74244 54.4171 6.41561C55.1361 6.12146 56.1166 5.36976 56.6068 4.81415C57.1298 4.22585 57.6527 3.21268 57.8488 2.55902C58.0122 1.87268 58.1756 1.12098 58.1756 0.924878C58.1756 0.598049 59.6137 0.532683 70.7585 0.663415L70.9546 1.97073C71.0527 2.68976 71.2815 3.5722 71.4776 3.93171C71.6737 4.29122 72.2619 4.97756 72.8502 5.50049C73.4058 5.99073 74.419 6.51366 75.0727 6.70976C75.759 6.87317 76.8702 7.03659 77.5239 7.03659C78.2102 7.03659 79.3215 6.80781 79.9751 6.51366C80.6615 6.2522 81.5766 5.69659 81.9688 5.30439C82.3937 4.9122 82.9493 4.22585 83.178 3.76829C83.4068 3.31073 83.6683 2.39561 83.9951 0.5H96.4146L96.6107 1.74195C96.7088 2.39561 97.0029 3.31073 97.2317 3.76829C97.4605 4.22585 98.0815 4.97756 98.6697 5.50049C99.2254 5.99073 100.239 6.51366 100.892 6.70976C101.579 6.87317 102.592 7.03659 103.115 7.03659C103.638 7.03659 104.651 6.87317 105.304 6.70976C105.991 6.51366 107.102 5.82732 107.788 5.17366C108.703 4.25854 109.128 3.47415 109.815 0.5H122.234L122.43 1.74195C122.528 2.39561 122.692 3.18 122.757 3.44146C122.822 3.70293 123.215 4.3239 123.607 4.81415C124.032 5.27171 125.012 5.99073 125.829 6.35024C126.646 6.70976 127.888 7.03659 128.607 7.03659C129.326 7.03659 130.438 6.87317 131.059 6.67707C131.68 6.44829 132.595 6.02342 133.085 5.6639C133.608 5.33707 134.294 4.48732 134.654 3.76829C135.013 3.04927 135.307 2.0361 135.307 0.5H147.89L148.152 1.87268C148.315 2.65707 148.74 3.80098 149.132 4.38927C149.612 5.15187 150.45 5.79463 151.649 6.31756C153.021 6.93854 153.806 7.10195 155.08 6.97122C155.963 6.90585 157.303 6.54634 157.989 6.18683C158.708 5.86 159.623 5.04293 160.048 4.42195C160.473 3.80098 160.931 2.65707 161.29 0.5H173.873V1.41512C173.873 1.90537 174.2 2.95122 174.592 3.76829C175.18 4.94488 175.703 5.43512 177.141 6.15415C178.318 6.74244 179.429 7.03659 180.41 7.03659C181.227 7.03659 182.469 6.74244 183.188 6.41561C183.907 6.08878 184.887 5.40244 185.378 4.87951C185.9 4.3239 186.456 3.21268 187.11 0.5H199.529L199.758 2.13415C199.954 3.40878 200.281 4.02976 201.229 5.01024C201.915 5.6639 203.059 6.41561 203.778 6.61171C204.497 6.84049 205.674 7.03659 206.393 7.03659C207.112 7.03659 208.288 6.74244 209.007 6.41561C209.726 6.08878 210.641 5.4678 211.034 5.04293C211.426 4.61805 211.981 3.70293 212.243 3.04927C212.537 2.36293 212.766 1.51317 212.766 1.15366C212.766 0.532683 212.995 0.5 225.349 0.5L225.447 1.70927C225.512 2.39561 225.741 3.31073 226.002 3.76829C226.231 4.22585 226.787 4.9122 227.212 5.30439C227.604 5.69659 228.617 6.2522 229.434 6.54634C230.251 6.80781 231.493 7.03659 232.212 7.03659C232.931 7.03659 234.108 6.74244 234.827 6.41561C235.546 6.12146 236.526 5.36976 237.017 4.81415C237.54 4.22585 238.062 3.21268 238.259 2.55902C238.422 1.87268 238.585 1.12098 238.585 0.924878C238.585 0.598049 240.056 0.5 251.005 0.5L251.201 1.41512C251.299 1.90537 251.462 2.65707 251.56 3.11463C251.659 3.5722 252.247 4.45463 252.9 5.10829C253.587 5.76195 254.698 6.48098 255.417 6.67707C256.136 6.87317 257.182 7.03659 257.705 7.03659C258.228 7.03659 259.241 6.87317 259.895 6.70976C260.581 6.51366 261.692 5.82732 262.379 5.17366C263.13 4.42195 263.751 3.47415 263.882 2.78781L263.899 2.7084C264.026 2.10153 264.18 1.37003 264.274 1.08829C264.405 0.565366 264.96 0.5 276.661 0.5L277.053 2.19951C277.347 3.47415 277.772 4.22585 278.687 5.10829C279.374 5.72927 280.518 6.44829 281.237 6.70976C282.054 6.97122 283.198 7.03659 284.341 6.90585C285.453 6.80781 286.597 6.41561 287.348 5.89268C288.035 5.43512 288.852 4.52 289.211 3.86634C289.538 3.18 289.898 2.13415 290.224 0.5H302.48L302.742 1.87268C302.905 2.65707 303.33 3.76829 303.722 4.38927C304.18 5.10829 305.062 5.79463 306.076 6.28488C306.958 6.67707 308.298 7.03659 309.017 7.03659C309.736 7.03659 310.88 6.84049 311.599 6.61171C312.285 6.41561 313.266 5.86 313.789 5.40244C314.279 4.94488 314.933 4.02976 315.194 3.3761C315.488 2.68976 315.717 1.77463 315.717 0.5H328.3L328.529 1.87268C328.66 2.65707 329.182 3.80098 329.705 4.42195C330.228 5.04293 331.209 5.89268 331.928 6.28488C332.614 6.70976 333.595 7.03659 335 7.03659V18.9659L333.627 19.1946C332.843 19.3254 331.699 19.7829 331.078 20.2078C330.424 20.6327 329.607 21.6459 329.182 22.4956C328.725 23.4761 328.463 24.6527 328.463 25.6659C328.463 26.679 328.725 27.8556 329.182 28.8361C329.607 29.6859 330.424 30.699 331.078 31.1239C331.699 31.5488 332.843 32.0063 335 32.3659V44.2951H333.921C333.333 44.2951 332.255 44.6873 331.405 45.2102C330.359 45.8639 329.705 46.5829 329.15 47.7268C328.561 49.0341 328.431 49.7532 328.496 51.3546C328.594 52.9234 328.823 53.6424 329.607 54.721C330.196 55.538 331.143 56.3551 331.96 56.7473C332.745 57.0742 333.725 57.3683 335 57.3683V69.461H334.02C333.464 69.461 332.451 69.7551 331.732 70.1146C331.013 70.4742 330.163 71.1605 329.836 71.6834C329.509 72.1737 329.084 72.9581 328.856 73.481C328.627 73.9712 328.463 75.0498 328.463 75.9322C328.463 76.782 328.66 77.9912 328.921 78.6122C329.182 79.2332 329.738 80.1156 330.163 80.5405C330.588 80.9981 331.503 81.619 332.222 81.9459C332.941 82.24 333.856 82.5341 334.248 82.5341C335 82.5341 335 82.5341 335 94.3L333.431 94.6595C332.581 94.8556 331.47 95.3459 330.915 95.7381C330.359 96.1302 329.607 97.1107 329.215 97.9278C328.79 98.7449 328.463 99.9868 328.463 100.837C328.463 101.654 328.627 102.83 328.823 103.451C329.052 104.072 329.575 105.02 330.065 105.543C330.522 106.066 331.503 106.752 332.222 107.079C332.941 107.406 333.856 107.7 334.248 107.7C335 107.7 335 107.7 335 119.466L333.595 119.695C332.843 119.825 331.699 120.316 331.078 120.773C330.457 121.231 329.607 122.277 329.215 123.061C328.725 124.009 328.463 125.12 328.463 126.264C328.463 127.277 328.692 128.454 329.084 129.205C329.411 129.859 330.13 130.807 330.719 131.33C331.274 131.82 332.287 132.343 332.941 132.539C333.627 132.702 334.379 132.866 334.575 132.866C334.902 132.866 335 134.271 335 144.632L333.758 144.795C333.104 144.893 331.928 145.383 331.143 145.939C330.326 146.527 329.509 147.475 329.117 148.325C328.758 149.109 328.463 150.384 328.463 151.332C328.463 152.247 328.758 153.554 329.084 154.273C329.379 154.992 330.098 155.94 330.62 156.398C331.143 156.855 332.353 157.443 335 158.195V169.798L333.758 169.994C333.104 170.124 332.189 170.386 331.732 170.615C331.274 170.843 330.588 171.399 330.196 171.824C329.803 172.216 329.248 173.131 328.986 173.818C328.692 174.471 328.463 175.779 328.463 176.661C328.463 177.576 328.692 178.785 328.986 179.374C329.28 179.929 329.836 180.779 330.228 181.171C330.588 181.596 331.274 182.152 331.732 182.38C332.189 182.609 333.104 182.871 335 183.198V194.8L333.464 195.225C332.581 195.486 331.503 195.944 330.98 196.303C330.49 196.63 329.738 197.545 329.28 198.33C328.856 199.081 328.463 200.095 328.463 201.5L323.071 201.598C320.097 201.631 317.286 201.663 316.796 201.663C316.011 201.663 315.848 201.5 315.684 200.52C315.586 199.899 315.325 199.016 315.161 198.559C314.965 198.101 314.312 197.284 313.723 196.761C313.102 196.205 311.86 195.552 310.978 195.323C309.671 194.931 309.017 194.931 307.71 195.258C306.795 195.486 305.585 196.042 304.964 196.532C304.343 197.022 303.559 198.003 303.232 198.722C302.905 199.441 302.644 200.356 302.644 200.781C302.644 201.5 302.611 201.5 297.643 201.5C294.931 201.5 292.153 201.598 290.388 201.892L289.832 199.997C289.44 198.526 288.982 197.774 287.969 196.859C287.218 196.173 286.074 195.486 285.387 195.29C284.734 195.127 283.72 194.963 283.198 194.963C282.675 194.963 281.433 195.323 280.485 195.781C279.406 196.303 278.491 197.055 277.968 197.84C277.511 198.493 277.02 199.604 276.661 201.5H271.759C269.046 201.5 266.333 201.598 265.712 201.696C264.568 201.892 264.568 201.892 264.143 200.323C263.882 199.441 263.49 198.33 263.228 197.84C262.967 197.317 262.15 196.565 261.365 196.107C260.614 195.65 259.241 195.192 258.359 195.094C257.084 194.931 256.398 195.029 255.156 195.584C254.306 195.944 253.195 196.761 252.639 197.349C252.116 197.905 251.495 199.081 250.841 201.5H246.266C243.749 201.5 241.004 201.598 240.121 201.729C238.781 201.958 238.585 201.925 238.585 201.435C238.585 201.108 238.357 200.16 238.062 199.31C237.768 198.428 237.213 197.415 236.82 196.99C236.461 196.598 235.382 195.944 234.5 195.584C233.225 195.029 232.506 194.931 231.232 195.094C230.317 195.225 229.075 195.584 228.454 195.944C227.833 196.303 226.918 197.219 226.395 198.003C225.904 198.755 225.512 199.67 225.512 200.029C225.512 200.389 225.381 200.846 225.251 201.042C225.087 201.304 222.963 201.467 212.766 201.663V200.846C212.766 200.389 212.504 199.441 212.178 198.722C211.851 198.003 211.066 197.022 210.445 196.565C209.824 196.107 208.811 195.552 208.19 195.323C207.569 195.127 206.687 194.963 206.229 194.963C205.772 194.963 204.759 195.192 203.941 195.454C203.124 195.748 201.98 196.434 201.392 197.022C200.771 197.611 200.085 198.787 199.202 201.5L194.039 201.598L192.821 201.612C190.484 201.64 188.444 201.663 188.025 201.663C187.273 201.663 187.11 201.5 186.881 200.454C186.75 199.768 186.391 198.787 186.129 198.232C185.868 197.676 185.149 196.892 184.56 196.467C184.005 196.009 182.828 195.454 181.946 195.225C180.671 194.865 180.148 194.865 178.841 195.225C177.991 195.454 176.815 196.009 176.226 196.467C175.671 196.892 174.952 197.578 174.69 198.003C174.429 198.395 174.069 199.343 173.71 201.5L168.382 201.598C165.474 201.631 162.696 201.663 162.238 201.663C161.454 201.663 161.323 201.467 160.931 200.029C160.702 199.147 160.212 198.036 159.885 197.578C159.525 197.12 158.904 196.5 158.48 196.205C158.055 195.879 157.009 195.454 156.126 195.225C154.884 194.865 154.296 194.865 153.021 195.225C152.172 195.454 150.995 196.009 150.407 196.467C149.851 196.892 149.067 197.84 148.707 198.559C148.348 199.278 148.054 200.225 148.054 201.5L142.661 201.598C139.687 201.631 136.876 201.663 136.386 201.663C135.569 201.663 135.471 201.5 135.242 200.193C135.079 199.376 134.686 198.232 134.327 197.676C133.902 196.957 133.052 196.303 131.876 195.781C130.895 195.323 129.686 194.963 129.163 194.963C128.673 194.963 127.692 195.127 126.973 195.323C126.254 195.519 125.176 196.075 124.587 196.565C123.966 197.022 123.215 198.003 122.855 198.722C122.528 199.441 122.234 200.356 122.234 200.781C122.234 201.5 122.201 201.5 117.56 201.5C115.011 201.5 112.266 201.598 109.978 201.892L109.39 199.899C109.063 198.689 108.475 197.545 107.919 197.022C107.429 196.532 106.383 195.879 105.566 195.519C104.455 195.029 103.703 194.931 102.461 195.094C101.546 195.192 100.173 195.682 99.3888 196.173C98.441 196.761 97.6566 197.611 97.199 198.559C96.7741 199.376 96.4146 200.356 96.4146 200.781C96.4146 201.5 96.382 201.5 91.741 201.5C89.1917 201.5 86.4137 201.598 84.0278 201.99L83.799 200.683C83.6683 199.964 83.3088 198.853 83.0146 198.232C82.6878 197.611 82.0015 196.761 81.4785 196.401C80.9883 196.009 79.9751 195.552 79.2561 195.323C78.5371 195.127 77.5566 194.963 77.0663 194.963C76.5434 194.963 75.3341 195.323 74.3537 195.781C72.981 196.401 72.36 196.924 71.739 198.003C71.3141 198.755 70.8239 199.866 70.4317 201.5H65.8561C63.3395 201.5 60.6268 201.598 58.339 201.892L58.1102 200.552C57.9468 199.833 57.62 198.787 57.3585 198.232C57.0971 197.676 56.378 196.892 55.8224 196.467C55.2341 196.042 54.221 195.552 53.6 195.323C52.979 195.127 52.0966 194.963 51.639 194.963C51.1815 194.963 50.1683 195.192 49.3512 195.454C48.5341 195.748 47.3902 196.434 46.8019 197.022C46.2137 197.611 45.6254 198.428 45.462 198.885C45.2985 199.343 45.0698 200.095 44.7756 201.5H40.1346C37.5527 201.5 34.7746 201.598 32.3561 201.99V201.01C32.3561 200.454 32.0946 199.441 31.7678 198.722C31.441 198.003 30.6566 197.022 30.0356 196.565C29.4146 196.107 28.4015 195.552 27.7805 195.323C27.1595 195.127 26.2771 194.963 25.8195 194.963C25.3619 194.963 24.4141 195.16 23.6951 195.356C22.9761 195.584 21.7995 196.369 21.0478 197.088C20.1654 197.97 19.6098 198.885 18.9561 201.5H14.119C11.4717 201.5 8.75902 201.631 8.10536 201.761C7.15756 201.925 6.86341 201.892 6.76537 201.5C6.66732 201.239 6.43854 200.356 6.20976 199.539C5.94829 198.624 5.36 197.611 4.60829 196.924C3.79122 196.107 2.90878 195.617 0 194.963V183.198L1.20927 183.034C1.89561 182.936 2.94146 182.577 3.49707 182.217C4.08537 181.858 4.9678 180.942 5.45805 180.191C6.11171 179.21 6.40585 178.295 6.47122 177.02C6.56927 175.909 6.40585 174.667 6.11171 173.883C5.81756 173.164 5.06585 172.085 4.44488 171.53C3.79122 170.941 2.94146 170.386 2.51659 170.32C2.12439 170.222 1.40537 170.092 0 169.798V163.915C0 159.437 0.0980488 158.032 0.392195 158.032C0.620976 158.032 1.37268 157.868 2.02634 157.705C2.71268 157.509 3.72585 156.986 4.31415 156.496C4.86976 155.973 5.62146 154.992 5.91561 154.273C6.24244 153.554 6.53658 152.378 6.53658 151.659C6.53658 150.94 6.37317 149.796 6.20976 149.142C6.01366 148.456 5.39268 147.377 4.80439 146.723C4.05268 145.874 3.23561 145.383 0 144.468V138.683C0 134.239 0.0980488 132.866 0.392195 132.866C0.620976 132.866 1.37268 132.702 2.02634 132.539C2.71268 132.343 3.72585 131.82 4.31415 131.33C4.86976 130.807 5.62146 129.826 5.91561 129.107C6.24244 128.388 6.53658 127.212 6.53658 126.493C6.53658 125.774 6.37317 124.63 6.20976 123.976C6.01366 123.29 5.49073 122.277 4.9678 121.688C4.47756 121.133 3.59512 120.479 3.00683 120.218C2.45122 119.989 1.5361 119.793 0 119.793V107.7H0.719024C1.1439 107.7 2.05902 107.406 2.77805 107.079C3.49707 106.752 4.41219 106.131 4.80439 105.706C5.19659 105.281 5.75219 104.366 6.01366 103.713C6.3078 103.026 6.53658 101.915 6.53658 101.261C6.53658 100.575 6.37317 99.4312 6.17707 98.7122C5.94829 97.9278 5.29463 96.9146 4.54293 96.1956C3.8239 95.4766 2.81073 94.8883 2.18976 94.7576L2.11729 94.7448C1.57049 94.6484 0.868431 94.5246 0.55561 94.4307C0.0653659 94.3 0 93.7444 0 88.4171C0 82.7629 0.0326829 82.5341 0.653659 82.5341C1.01317 82.5341 1.86293 82.3054 2.51659 82.0112C3.20293 81.7498 4.11805 81.1942 4.54293 80.802C4.9678 80.4098 5.58878 79.4946 5.91561 78.7756C6.24244 78.0566 6.5039 76.8146 6.5039 75.9976C6.5039 75.1805 6.3078 73.9385 6.01366 73.2195C5.75219 72.5005 5.29463 71.6181 4.9678 71.2912C4.67366 70.9644 3.8239 70.4088 3.10488 70.082C2.38585 69.7551 1.40537 69.461 0 69.461V57.5317L1.69951 57.1068C2.71268 56.8781 3.8239 56.3224 4.37951 55.7995C4.90244 55.3093 5.58878 54.3288 5.91561 53.6098C6.24244 52.8907 6.53658 51.6488 6.53658 50.8317C6.53658 49.8512 6.24244 48.74 5.65415 47.5634C4.93512 46.1254 4.44488 45.6024 3.26829 45.0141C2.45122 44.622 1.40537 44.2951 0 44.2951V32.2024H0.817073C1.27463 32.2024 2.12439 32.0063 2.68 31.7449C3.26829 31.5161 4.24878 30.7971 4.83707 30.2088C5.45805 29.5878 6.04634 28.7381 6.14439 28.2805C6.27512 27.8229 6.37317 26.5156 6.34049 25.339C6.34049 23.8356 6.14439 22.8878 5.68683 22.0707C5.32732 21.4498 4.51024 20.6 3.88927 20.1751C3.26829 19.7829 2.15707 19.3907 0 19.1293V7.2L1.20927 6.97122C1.89561 6.84049 2.97415 6.41561 3.59512 5.99073C4.2161 5.56585 5.06585 4.7161 5.45805 4.09512Z" fill="#F7E4C4"/>
</svg>
